<?xml version="1.0" standalone="no"?>
<!DOCTYPE svg PUBLIC "-//W3C//DTD SVG 20010904//EN"
 "http://www.w3.org/TR/2001/REC-SVG-20010904/DTD/svg10.dtd">
<svg version="1.0" xmlns="http://www.w3.org/2000/svg"
 width="300.000000pt" height="300.000000pt" viewBox="0 0 300.000000 300.000000"
 preserveAspectRatio="xMidYMid meet">
<metadata>
Created by potrace 1.10, written by Peter Selinger 2001-2011
</metadata>
<g transform="translate(0.000000,300.000000) scale(0.100000,-0.100000)"
fill="#000000" stroke="none">
<path d="M1440 2156 c-14 -8 -62 -23 -107 -34 -159 -40 -322 -141 -397 -247
-68 -95 -117 -204 -131 -290 -4 -22 -14 -55 -22 -74 -14 -31 -14 -38 0 -65 8
-17 18 -53 20 -81 3 -27 17 -87 32 -132 59 -187 269 -370 480 -418 185 -42
153 -42 335 3 215 52 415 239 478 447 32 106 36 288 8 380 -35 113 -84 194
-176 286 -69 70 -102 94 -177 132 -50 25 -118 51 -150 57 -32 7 -76 20 -99 31
-48 22 -60 23 -94 5z m79 -32 c20 -15 23 -23 19 -64 -5 -50 -42 -114 -62 -107
-19 6 -56 80 -56 115 0 35 29 72 58 72 10 0 28 -7 41 -16z m-106 -134 c9 -19
29 -48 43 -65 l26 -30 24 30 c37 45 64 101 64 133 0 25 3 28 28 25 l27 -5 0
-91 0 -92 93 -3 92 -3 0 51 c0 27 3 50 7 50 7 0 111 -79 117 -89 2 -3 -15 -6
-39 -6 -81 0 -136 -85 -101 -156 20 -41 21 -39 -12 -39 -19 0 -40 -12 -67 -40
-21 -21 -42 -37 -46 -35 -4 3 -5 22 -2 44 15 108 -72 201 -187 201 -112 0
-183 -70 -183 -180 0 -30 -2 -59 -4 -63 -3 -5 -24 9 -47 32 -26 26 -55 43 -80
48 -22 5 -42 15 -46 23 -4 8 -12 25 -18 37 -17 33 -15 83 3 83 18 0 20 17 3
23 -10 3 -8 9 5 24 9 11 17 24 17 30 0 6 15 13 32 15 36 6 96 -28 79 -45 -5
-5 -5 -22 0 -39 7 -25 5 -31 -11 -35 -10 -3 -21 -11 -23 -17 -3 -8 -17 -11
-36 -8 -23 3 -31 10 -31 24 0 17 -3 18 -15 8 -17 -14 -20 -36 -5 -45 6 -4 31
-8 55 -11 35 -3 45 -1 45 11 0 8 9 15 19 15 22 0 28 17 27 80 -1 37 -5 47 -23
55 -13 5 -23 16 -23 23 0 11 -9 13 -37 8 -63 -12 -73 -17 -73 -38 0 -20 -1
-20 -20 -3 -19 17 -19 18 3 35 23 18 130 80 139 80 2 0 3 -12 1 -27 -3 -21 3
-35 26 -57 21 -20 34 -27 41 -20 7 7 2 18 -15 34 -25 23 -32 54 -17 77 4 6 32
18 62 25 l55 14 6 -30 c3 -17 13 -47 22 -66z m332 -8 c0 -34 -3 -62 -7 -62 -5
0 -26 0 -48 0 l-40 0 0 66 0 65 48 -3 47 -3 0 -63z m45 -36 c0 -14 -4 -28 -10
-31 -6 -4 -10 7 -10 24 0 17 5 31 10 31 6 0 10 -11 10 -24z m-710 -48 c0 -12
-38 -9 -42 3 -3 8 -10 8 -25 -2 -31 -19 -43 -1 -14 22 22 18 24 18 52 2 16
-10 29 -21 29 -25z m874 -49 c20 -16 26 -29 26 -60 0 -94 -115 -124 -158 -42
-19 35 -14 63 17 94 35 35 77 38 115 8z m-884 -24 c0 -34 -1 -35 -40 -35 -39
0 -40 1 -40 35 0 34 1 35 40 35 39 0 40 -1 40 -35z m-105 -32 c-4 -21 -7 -63
-6 -93 0 -46 5 -59 26 -77 22 -19 38 -23 98 -23 63 0 74 -3 99 -27 18 -17 28
-37 28 -55 0 -31 -20 -37 -40 -13 -7 8 -20 15 -30 15 -10 0 -23 -7 -30 -15 -7
-8 -19 -15 -26 -15 -8 0 -14 -7 -14 -15 0 -8 6 -15 14 -15 7 0 19 -7 26 -15 7
-8 20 -15 30 -15 10 0 23 7 30 15 21 25 40 18 40 -15 0 -24 -4 -30 -22 -30
-13 0 -32 -7 -42 -15 -13 -10 -43 -15 -87 -15 -72 0 -116 -17 -170 -67 l-26
-24 -10 61 -10 60 124 0 c103 0 123 2 123 15 0 13 -21 15 -127 15 -104 0 -130
3 -145 17 -23 21 -23 38 2 63 18 18 33 20 145 20 104 0 125 2 125 15 0 11 -11
15 -43 15 -33 0 -49 6 -67 25 -13 14 -28 25 -33 25 -5 0 -17 10 -27 22 -15 19
-20 21 -34 9 -9 -8 -16 -24 -14 -35 2 -16 9 -21 32 -19 16 1 38 -4 50 -12 19
-14 16 -15 -41 -15 -48 0 -61 3 -57 13 3 8 -2 19 -10 26 -12 10 -13 18 -4 37
6 13 15 24 19 24 5 0 16 17 26 38 14 33 17 34 20 15 6 -34 23 -28 23 7 0 17
-4 30 -10 30 -5 0 -10 7 -10 15 0 8 5 15 10 15 6 0 10 9 10 19 0 18 12 28 34
30 4 1 5 -16 1 -36z m597 5 c39 -27 58 -68 58 -123 l0 -45 -140 0 -140 0 0 43
c0 123 126 194 222 125z m478 -77 c-26 -49 -29 -70 -14 -85 13 -14 12 -16 -10
-22 -13 -3 -34 -17 -47 -30 -18 -20 -32 -24 -76 -24 -40 0 -53 -4 -53 -15 0
-13 21 -15 126 -15 69 0 134 -5 145 -10 22 -12 26 -59 7 -78 -8 -8 -55 -12
-145 -12 -112 0 -133 -2 -133 -15 0 -13 22 -15 135 -15 74 0 135 -2 135 -5 0
-2 -5 -27 -11 -54 l-11 -51 -32 25 c-18 14 -42 25 -53 25 -11 0 -26 7 -33 15
-9 10 -32 15 -74 15 -39 0 -69 5 -82 15 -10 8 -29 15 -40 15 -20 0 -21 5 -20
74 1 64 5 79 25 100 22 23 33 26 92 26 85 0 120 24 125 86 2 21 7 59 10 83 l7
44 19 -37 c14 -27 16 -41 8 -55z m-955 19 c0 -23 -4 -25 -57 -28 -61 -3 -67 2
-47 39 8 16 19 19 57 17 43 -3 47 -5 47 -28z m84 -70 c7 0 31 -14 53 -31 37
-30 38 -32 22 -50 -17 -19 -18 -19 -49 11 -29 28 -36 30 -107 30 -68 0 -79 3
-93 23 -15 22 -15 22 37 25 29 2 57 7 61 11 5 5 21 3 35 -5 15 -8 33 -14 41
-14z m735 3 c17 2 39 7 49 12 27 12 21 -22 -8 -41 -19 -12 -37 -15 -82 -9 -57
6 -59 6 -92 -29 -27 -27 -38 -33 -48 -25 -20 18 -16 34 18 60 43 32 89 48 113
36 10 -5 32 -7 50 -4z m199 -88 l6 -30 -65 3 c-58 3 -63 5 -47 18 10 7 26 14
35 14 10 0 25 12 34 26 19 28 27 22 37 -31z m-448 -9 c18 -8 38 -23 44 -34 17
-31 14 -247 -3 -281 -23 -44 -53 -51 -221 -51 l-155 0 -32 29 -33 29 -3 117
c-5 150 5 174 78 198 8 3 77 6 153 6 98 1 147 -3 172 -13z m-445 -231 c0 -18
-5 -25 -20 -25 -11 0 -38 -18 -60 -40 -22 -22 -42 -40 -44 -40 -2 0 -6 13 -9
30 -4 16 -16 39 -27 50 l-20 20 53 0 c31 0 61 6 73 15 30 23 54 19 54 -10z
m594 10 c13 -10 43 -15 83 -15 35 0 63 -2 63 -4 0 -2 3 -11 6 -20 5 -12 0 -16
-19 -16 -16 0 -34 -10 -47 -27 l-21 -26 -37 36 c-21 20 -48 37 -60 37 -17 0
-22 6 -22 25 0 29 24 33 54 10z m-771 -53 c9 -8 17 -22 17 -30 0 -12 -5 -10
-23 6 -33 31 -52 28 -103 -21 l-44 -43 50 -47 c51 -48 71 -52 98 -19 9 12 12
13 12 2 0 -21 -31 -50 -53 -50 -56 0 -124 82 -111 134 8 34 50 74 88 85 33 9
41 7 69 -17z m1016 -17 c16 -16 24 -35 25 -61 l1 -39 -52 -3 c-45 -3 -53 -6
-53 -23 0 -12 -7 -19 -20 -19 -15 0 -20 7 -20 29 0 16 -6 31 -15 35 -8 3 -15
14 -15 24 0 41 56 59 62 21 3 -24 33 -48 44 -36 4 4 0 15 -9 25 -10 10 -17 33
-17 51 0 29 2 32 23 26 12 -4 33 -17 46 -30z m-836 -22 c5 -24 -4 -37 -61 -96
-37 -37 -75 -70 -84 -73 -19 -6 -24 -39 -8 -49 5 -3 47 33 93 82 l84 87 31
-24 c17 -14 31 -32 31 -41 1 -19 -60 -49 -100 -49 -40 0 -79 -39 -79 -80 0
-36 38 -80 69 -80 11 0 25 -9 31 -20 16 -30 65 -27 86 5 9 14 22 25 30 25 19
0 34 33 34 74 0 39 -39 79 -68 70 -15 -5 -15 -4 1 9 9 8 17 24 17 36 0 20 5
21 75 21 l75 0 0 -31 c0 -22 -8 -37 -26 -52 -27 -20 -29 -53 -9 -101 7 -16 5
-18 -8 -13 -11 4 -17 1 -17 -9 0 -12 13 -14 73 -12 42 2 71 7 69 13 -2 6 -10
9 -18 7 -16 -3 -19 14 -4 23 19 12 11 73 -11 94 -12 11 -23 34 -24 51 l-3 30
75 0 c65 0 74 -2 69 -16 -4 -9 -2 -22 4 -29 8 -10 0 -23 -32 -54 l-43 -40 44
-45 c24 -24 55 -47 68 -51 41 -10 96 12 138 55 l40 41 -47 45 c-40 38 -68 50
-101 45 -17 -3 -47 21 -47 37 0 9 15 26 32 38 l32 21 68 -66 c37 -35 68 -70
68 -77 0 -21 33 -26 48 -7 11 15 10 19 -5 28 -10 6 -50 42 -90 80 -63 61 -71
73 -66 98 7 35 19 34 68 -7 76 -65 85 -75 85 -99 0 -12 5 -28 12 -35 19 -19
66 -15 78 8 6 11 18 20 26 20 13 0 12 -5 -5 -29 -37 -51 -135 -144 -194 -182
-57 -37 -192 -89 -232 -89 -11 0 -33 -9 -50 -20 -38 -25 -73 -25 -105 0 -14
11 -37 20 -51 20 -80 0 -229 71 -329 155 -60 51 -70 65 -47 65 19 0 45 30 59
70 12 36 114 150 134 150 6 0 14 -12 17 -27z m-206 -3 c3 -11 13 -20 23 -20
26 0 43 -23 28 -38 -7 -7 -20 -12 -29 -12 -9 0 -19 -9 -22 -20 -3 -11 -10 -20
-17 -20 -7 0 -14 9 -17 20 -3 11 -13 20 -23 20 -26 0 -43 23 -28 38 7 7 20 12
29 12 9 0 19 9 22 20 3 11 10 20 17 20 7 0 14 -9 17 -20z m742 -186 c11 -10
-11 -15 -50 -12 -42 4 -43 4 -19 15 22 10 56 8 69 -3z m-419 -12 c18 -15 21
-24 15 -50 -9 -42 -18 -46 -95 -48 -88 -2 -102 6 -98 59 3 42 3 42 48 48 82
11 108 9 130 -9z m171 -2 c23 -13 24 -38 3 -68 -20 -29 -30 -28 -49 8 -19 36
-19 35 1 54 18 19 20 19 45 6z m184 -40 c0 -25 -4 -30 -25 -30 -15 0 -31 5
-37 11 -17 17 7 49 37 49 21 0 25 -5 25 -30z m105 15 c19 -22 5 -45 -28 -45
-25 0 -29 4 -29 30 0 24 5 30 22 30 13 0 28 -7 35 -15z m-57 -77 c-15 -7 -30
-7 -50 0 -26 10 -24 10 22 11 42 0 46 -2 28 -11z"/>
<path d="M1451 2082 c-6 -11 -6 -24 0 -33 5 -7 9 -26 9 -41 0 -21 5 -26 20
-25 14 1 20 8 20 24 0 13 5 32 12 42 9 15 9 23 -1 35 -18 21 -48 20 -60 -2z"/>
<path d="M1317 1996 c-4 -9 1 -22 9 -30 20 -20 46 -9 42 18 -4 25 -43 34 -51
12z"/>
<path d="M1546 1924 c-8 -21 1 -34 24 -34 10 0 21 4 24 9 10 16 -5 41 -24 41
-10 0 -21 -7 -24 -16z"/>
<path d="M1157 1894 c-10 -11 -9 -42 3 -49 20 -12 51 6 48 28 -3 22 -36 35
-51 21z"/>
<path d="M1297 1883 c-12 -11 -7 -33 8 -39 20 -8 45 13 38 32 -5 14 -34 19
-46 7z"/>
<path d="M1674 1836 c-10 -26 4 -48 28 -44 17 2 23 10 23 28 0 18 -6 26 -23
28 -13 2 -25 -3 -28 -12z"/>
<path d="M1723 1759 c-12 -12 -7 -39 7 -39 12 0 19 25 11 38 -5 9 -10 9 -18 1z"/>
<path d="M1670 1980 c0 -5 14 -10 30 -10 17 0 30 5 30 10 0 6 -13 10 -30 10
-16 0 -30 -4 -30 -10z"/>
<path d="M1860 1820 c0 -10 -8 -24 -17 -30 -17 -10 -17 -10 0 -20 9 -6 17 -17
17 -24 0 -9 14 -13 40 -13 24 0 37 4 33 10 -3 5 2 16 13 24 15 11 16 16 6 22
-7 4 -15 16 -16 27 -4 27 -76 31 -76 4z m60 -36 c0 -19 -28 -30 -42 -16 -8 8
-8 15 1 26 14 17 41 10 41 -10z"/>
<path d="M900 1478 c0 -17 7 -19 68 -16 50 2 67 7 67 17 0 11 -16 15 -67 16
-61 2 -68 0 -68 -17z"/>
<path d="M1433 1785 c-17 -7 -39 -27 -47 -44 -18 -33 -23 -117 -6 -91 5 8 10
28 10 43 0 39 49 87 88 87 46 0 88 -41 100 -97 l10 -48 1 45 c1 54 -18 87 -65
106 -41 17 -50 17 -91 -1z"/>
<path d="M1480 1754 c-12 -13 -11 -17 0 -24 16 -10 47 9 33 19 -4 4 -11 10
-14 14 -3 4 -12 0 -19 -9z"/>
<path d="M1420 1705 c-15 -18 -5 -35 21 -35 12 0 19 7 19 19 0 24 -25 34 -40
16z"/>
<path d="M1810 1490 c-13 -10 -20 -22 -16 -29 11 -17 26 -13 37 12 l10 22 -5
-22 c-2 -13 0 -23 4 -23 22 0 40 14 40 30 0 25 -42 31 -70 10z"/>
<path d="M1904 1488 c-12 -19 15 -29 72 -26 43 2 59 7 59 18 0 10 -15 14 -63
16 -34 1 -65 -3 -68 -8z"/>
<path d="M2065 1490 c-4 -7 -3 -16 3 -22 14 -14 45 -2 40 15 -6 16 -34 21 -43
7z"/>
<path d="M1302 1548 c-14 -14 -16 -106 -2 -128 5 -9 5 -19 -1 -26 -6 -7 -8
-39 -6 -71 l3 -58 2 63 c2 48 5 62 17 62 9 0 15 -9 15 -25 0 -16 6 -25 15 -25
9 0 15 9 15 25 0 16 6 25 15 25 12 0 15 -14 15 -65 0 -51 -3 -65 -15 -65 -9 0
-15 9 -15 25 0 16 -6 25 -15 25 -9 0 -15 -9 -15 -24 0 -13 -6 -26 -12 -29 -7
-2 9 -5 35 -5 33 -1 50 3 53 13 5 11 12 10 43 -6 31 -16 44 -17 65 -9 19 7 33
7 46 0 21 -11 66 -4 88 13 9 8 13 30 11 71 -2 34 0 67 4 74 6 9 -3 12 -33 12
l-41 0 3 58 3 57 34 0 c19 0 36 -6 39 -12 2 -8 -6 -13 -22 -13 -14 0 -26 -4
-26 -10 0 -5 7 -10 15 -10 8 0 15 -4 15 -10 0 -5 -7 -10 -15 -10 -8 0 -15 -4
-15 -10 0 -5 12 -10 26 -10 15 0 23 4 19 11 -4 5 -1 24 6 41 21 52 1 58 -191
58 -116 0 -170 -4 -178 -12z m62 -14 c25 -9 19 -34 -6 -31 -18 2 -24 -4 -26
-26 -3 -25 0 -28 20 -25 15 2 23 -2 23 -12 0 -22 -46 -25 -62 -4 -20 28 -16
71 9 88 26 19 22 18 42 10z m112 -39 c9 -36 -4 -64 -33 -71 -31 -8 -53 16 -53
57 0 59 72 70 86 14z m98 3 c13 -38 -14 -78 -54 -78 -30 0 -30 1 -30 53 0 30
2 56 5 59 3 3 20 2 38 -1 22 -5 35 -15 41 -33z m-96 -155 c-2 -40 0 -48 15
-51 16 -3 18 2 16 45 -3 39 0 48 14 51 14 3 17 -4 17 -35 0 -59 -10 -83 -37
-89 -35 -9 -55 15 -61 75 -4 47 -3 51 18 51 20 0 21 -4 18 -47z m163 31 c10
-12 10 -20 1 -35 -7 -11 -8 -19 -2 -19 14 0 13 -33 -2 -48 -7 -7 -27 -12 -45
-12 l-33 0 0 65 0 65 34 0 c18 0 39 -7 47 -16z"/>
<path d="M1420 1481 c0 -21 5 -31 16 -31 11 0 14 8 12 27 -4 39 -28 42 -28 4z"/>
<path d="M1520 1481 c0 -21 5 -31 16 -31 11 0 14 8 12 27 -4 39 -28 42 -28 4z"/>
<path d="M1387 1125 c-16 -11 -16 -14 -2 -25 13 -11 18 -11 30 1 20 21 -4 42
-28 24z"/>
<path d="M1554 1119 c-3 -6 -1 -16 5 -22 9 -9 14 -8 21 3 9 15 4 30 -10 30 -5
0 -12 -5 -16 -11z"/>
<path d="M1340 910 c0 -5 -8 -10 -17 -11 -14 0 -15 -2 -3 -6 8 -3 18 -10 21
-16 4 -6 12 -5 21 4 12 11 13 16 2 26 -15 16 -24 17 -24 3z"/>
<path d="M1414 905 c-10 -25 4 -45 31 -45 16 0 25 -6 25 -15 0 -8 5 -15 10
-15 6 0 10 6 10 14 0 9 12 16 28 18 21 2 27 8 27 28 0 24 -3 25 -63 28 -49 2
-64 0 -68 -13z m116 -15 c0 -5 -20 -10 -45 -10 -25 0 -45 5 -45 10 0 6 20 10
45 10 25 0 45 -4 45 -10z"/>
<path d="M1594 907 c-8 -9 -7 -16 4 -26 9 -9 17 -10 21 -4 3 6 13 13 21 16 12
4 11 6 -2 6 -10 1 -18 6 -18 11 0 14 -13 12 -26 -3z"/>
<path d="M1170 1040 c0 -5 23 -10 50 -10 28 0 50 5 50 10 0 6 -22 10 -50 10
-27 0 -50 -4 -50 -10z"/>
<path d="M1290 1033 c0 -24 17 -49 27 -40 4 5 1 13 -7 18 -11 8 -12 12 -2 16
17 7 15 23 -3 23 -8 0 -15 -8 -15 -17z"/>
<path d="M1175 1000 c3 -5 24 -10 45 -10 21 0 42 5 45 10 4 6 -13 10 -45 10
-32 0 -49 -4 -45 -10z"/>
</g>
</svg>
